<?xml version="1.0" standalone="no"?>
<!DOCTYPE svg PUBLIC "-//W3C//DTD SVG 20010904//EN"
 "http://www.w3.org/TR/2001/REC-SVG-20010904/DTD/svg10.dtd">
<svg version="1.0" xmlns="http://www.w3.org/2000/svg"
 width="1500.000000pt" height="750.000000pt" viewBox="0 0 1500.000000 750.000000"
 preserveAspectRatio="xMidYMid meet">


<g transform="translate(0.000000,279.000000) scale(0.100000,-0.100000)"
fill="#ffffff" stroke="none">
<path d="M3670 1592 c0 -6 -9 -8 -20 -5 -50 13 -206 -88 -356 -230 l-84 -79
-83 20 c-133 33 -232 45 -320 39 -84 -5 -184 -36 -180 -56 2 -6 -4 -8 -11 -5
-25 9 -93 -69 -111 -128 -14 -43 -15 -61 -6 -94 13 -49 48 -97 63 -88 7 4 8 2
4 -5 -5 -7 9 -19 41 -34 38 -17 66 -22 132 -22 58 0 86 4 89 13 2 7 8 9 13 6
14 -8 121 45 114 57 -4 5 0 6 7 4 7 -3 42 15 76 40 56 41 62 48 50 63 -11 15
-11 16 4 4 14 -11 21 -8 53 19 20 18 34 38 31 45 -3 9 0 11 11 7 10 -4 14 -2
10 4 -8 13 0 12 115 -7 42 -7 86 -10 97 -7 19 5 19 3 -4 -60 -33 -87 -33 -142
1 -182 22 -27 32 -31 74 -31 40 0 56 6 96 37 51 38 83 72 84 87 0 5 -10 0 -22
-12 -44 -40 -121 -41 -133 -2 -4 13 5 44 23 85 20 41 26 65 19 68 -6 2 -3 6 7
10 10 4 15 3 11 -3 -10 -15 51 -12 92 5 56 24 76 44 60 64 -10 14 -10 14 4 4
13 -11 19 -10 31 5 32 37 32 44 0 28 -17 -9 -44 -16 -59 -16 -15 0 -35 -4 -43
-10 -28 -18 -27 12 2 43 15 18 26 38 23 45 -3 7 -1 11 4 8 11 -7 62 59 53 69
-4 3 -2 5 3 3 6 -2 33 22 59 52 27 30 55 60 63 67 8 6 12 16 8 22 -4 7 0 8 11
4 12 -4 15 -2 12 8 -6 17 -64 34 -150 43 -43 5 -68 4 -68 -2z m60 -50 c0 -5
-9 -17 -20 -27 -12 -10 -18 -25 -16 -32 3 -7 0 -12 -7 -10 -7 1 -11 -4 -9 -11
1 -8 -1 -11 -6 -8 -5 3 -18 -5 -28 -17 -61 -72 -73 -90 -68 -99 4 -6 2 -8 -3
-5 -15 9 -66 -60 -59 -79 4 -9 2 -12 -5 -8 -6 4 -14 2 -18 -3 -6 -10 -136 0
-170 13 -10 3 -1 18 32 52 26 27 44 52 40 57 -5 4 -3 5 3 2 14 -8 37 17 26 28
-4 5 -2 5 5 2 6 -4 37 15 70 43 73 63 158 109 201 110 17 0 32 -4 32 -8z m51
-79 c13 -16 12 -17 -3 -4 -17 13 -22 21 -14 21 2 0 10 -8 17 -17z m-504 -180
c0 -9 -4 -10 -14 -2 -7 6 -13 12 -13 14 0 1 6 2 13 2 8 0 14 -6 14 -14z m-242
-60 c44 -10 80 -22 80 -28 0 -18 -170 -155 -239 -192 -66 -35 -77 -38 -164
-40 -64 -1 -90 2 -85 10 4 7 0 8 -11 4 -10 -4 -15 -3 -11 3 3 6 -1 13 -10 16
-23 9 -45 57 -45 97 0 60 60 116 151 142 67 19 218 13 334 -12z"/>
<path d="M4084 1562 c4 -8 2 -10 -8 -6 -14 5 -27 -5 -75 -62 -33 -40 -145
-208 -134 -201 5 3 10 0 10 -7 0 -8 -6 -12 -12 -9 -15 5 -58 -64 -49 -79 4 -7
2 -8 -5 -4 -6 4 -14 0 -18 -11 -4 -10 -17 -35 -31 -55 -13 -21 -21 -42 -16
-49 4 -7 3 -10 -3 -6 -25 16 -31 -74 -9 -128 19 -46 50 -62 119 -64 67 -2 175
39 161 60 -5 8 -3 9 5 5 15 -10 80 56 115 117 33 55 59 159 51 198 -4 16 -11
27 -16 24 -5 -4 -6 1 -3 9 6 15 -28 40 -40 29 -3 -3 -6 -1 -6 5 0 7 -12 12
-26 12 -14 0 -23 -3 -21 -7 3 -5 -10 -9 -29 -10 -34 -2 -34 -1 -19 25 8 15 27
47 44 71 16 25 27 49 24 54 -3 6 -1 7 5 3 13 -8 58 63 46 74 -15 14 -68 25
-60 12z m-99 -141 c3 -5 2 -12 -3 -15 -5 -3 -9 1 -9 9 0 17 3 19 12 6z m83
-137 c32 -22 28 -60 -19 -154 -51 -102 -143 -200 -188 -200 -48 0 -56 21 -30
82 13 29 29 63 37 76 12 19 12 25 1 40 -12 15 -12 16 2 4 14 -10 18 -10 23 3
4 11 2 14 -7 10 -6 -4 -3 2 9 12 11 10 32 37 47 61 23 36 78 82 97 82 3 0 16
-7 28 -16z m-194 -102 c3 -5 -1 -9 -9 -9 -8 0 -12 4 -9 9 3 4 7 8 9 8 2 0 6
-4 9 -8z m201 -174 c4 -3 2 -9 -3 -12 -5 -3 -15 1 -21 8 -10 11 -9 14 3 12 9
-1 18 -5 21 -8z"/>
<path d="M4460 1525 c-17 -25 -28 -50 -24 -57 4 -6 3 -8 -3 -5 -10 6 -86 -116
-86 -139 0 -8 -3 -12 -5 -9 -9 8 -92 -146 -85 -158 4 -6 1 -7 -7 -2 -10 6 -12
4 -7 -9 4 -9 3 -15 -2 -12 -8 5 -111 -182 -111 -203 0 -16 38 -51 55 -51 8 0
35 31 60 70 24 38 61 87 81 109 21 24 33 45 28 52 -4 7 -3 10 2 6 5 -3 44 27
87 67 74 70 92 81 80 48 -4 -10 -2 -13 5 -8 6 3 14 2 17 -4 4 -6 3 -10 -2 -9
-4 1 -11 0 -15 -1 -5 -1 -14 -3 -20 -4 -7 -1 -12 -7 -10 -14 1 -7 -2 -12 -8
-12 -12 0 -51 -75 -43 -84 4 -3 1 -6 -6 -6 -7 0 -9 -4 -6 -10 3 -5 2 -10 -3
-10 -12 0 -32 -70 -32 -114 0 -20 5 -36 10 -36 6 0 10 -7 10 -15 0 -17 60 -36
76 -24 6 5 14 6 17 3 13 -13 130 82 121 98 -3 5 0 7 8 6 7 -2 12 3 10 10 -1 8
2 11 7 8 5 -3 12 -23 16 -44 11 -67 50 -97 107 -82 41 12 121 77 112 92 -4 7
-2 8 4 4 14 -9 102 102 102 129 0 13 -24 -6 -82 -68 -57 -59 -90 -87 -105 -87
-33 0 -30 40 7 118 17 35 27 69 23 75 -3 7 -2 9 2 4 10 -9 58 69 50 83 -3 5 4
14 15 20 14 8 19 17 15 28 -3 9 -3 13 1 9 8 -8 33 22 34 41 0 9 -13 12 -47 10
-44 -3 -50 -7 -95 -62 -26 -33 -45 -63 -42 -68 3 -4 1 -8 -5 -8 -6 0 -20 -19
-32 -42 -12 -24 -28 -51 -36 -60 -14 -16 -10 -43 6 -34 3 3 7 -4 7 -15 0 -19
-1 -18 -17 3 l-18 23 -23 -30 c-13 -16 -22 -33 -20 -38 1 -5 -1 -6 -6 -3 -5 3
-20 -6 -32 -19 -28 -30 -80 -35 -80 -7 0 9 9 37 20 61 11 23 17 48 13 55 -3 6
-3 8 2 4 9 -8 125 182 125 204 0 17 -41 38 -74 38 -35 0 -173 -100 -159 -114
4 -3 -1 -6 -10 -6 -8 0 -31 -19 -51 -42 -37 -45 -47 -41 -22 8 8 15 12 32 9
38 -3 6 -2 8 2 3 12 -10 67 81 59 96 -4 7 -3 9 1 4 13 -12 106 154 95 169 -7
8 -5 16 7 25 17 13 17 13 3 -5 -13 -17 -13 -19 0 -14 8 2 16 14 18 26 3 16 -4
25 -23 32 -39 15 -41 14 -75 -35z m143 -229 c4 -10 1 -13 -8 -9 -8 3 -12 9 -9
14 7 12 11 11 17 -5z m-53 0 c0 -2 -8 -10 -17 -17 -16 -13 -17 -12 -4 4 13 16
21 21 21 13z m-150 -42 c0 -8 -19 -13 -24 -6 -3 5 1 9 9 9 8 0 15 -2 15 -3z"/>
<path d="M4980 1550 c0 -5 -3 -9 -7 -9 -20 3 -34 -2 -29 -10 3 -5 -1 -11 -9
-15 -9 -3 -15 -18 -15 -35 0 -71 95 -97 151 -42 36 36 37 61 3 95 -27 26 -94
38 -94 16z"/>
</g>
</svg>
